<<<<<<< Updated upstream
<mxfile host="Electron" agent="Mozilla/5.0 (Windows NT 10.0; Win64; x64) AppleWebKit/537.36 (KHTML, like Gecko) draw.io/26.0.3 Chrome/130.0.6723.137 Electron/33.2.1 Safari/537.36" version="26.0.3" pages="7">
  <diagram id="8yKRzX55yw8iAQM8X-Ct" name="系统循环架构总览">
    <mxGraphModel dx="863" dy="1723" grid="0" gridSize="10" guides="1" tooltips="1" connect="1" arrows="1" fold="1" page="1" pageScale="1" pageWidth="827" pageHeight="1169" math="0" shadow="0">
=======
<mxfile host="Electron" agent="Mozilla/5.0 (Windows NT 10.0; Win64; x64) AppleWebKit/537.36 (KHTML, like Gecko) draw.io/26.2.15 Chrome/134.0.6998.205 Electron/35.2.1 Safari/537.36" version="26.2.15" pages="8">
  <diagram id="8yKRzX55yw8iAQM8X-Ct" name="系统循环架构总览">
    <mxGraphModel dx="1554" dy="922" grid="0" gridSize="10" guides="1" tooltips="1" connect="1" arrows="1" fold="1" page="1" pageScale="1" pageWidth="827" pageHeight="1169" math="0" shadow="1">
>>>>>>> Stashed changes
      <root>
        <mxCell id="0" />
        <mxCell id="1" parent="0" />
        <mxCell id="sgZPGOeCJPQWiLNWUdwU-47" value="&lt;a href=&quot;data:page/id,7nI9HsyKMPYUS1flPPYI&quot;&gt;场景管理系统&lt;/a&gt;" style="rounded=1;whiteSpace=wrap;html=1;fillColor=#f8cecc;strokeColor=#b85450;arcSize=50;sketch=1;curveFitting=1;jiggle=2;" parent="1" vertex="1">
          <mxGeometry x="1100.27" y="710" width="80" height="28.09" as="geometry" />
        </mxCell>
        <mxCell id="sgZPGOeCJPQWiLNWUdwU-46" style="edgeStyle=orthogonalEdgeStyle;rounded=0;orthogonalLoop=1;jettySize=auto;html=1;sketch=1;curveFitting=1;jiggle=2;" parent="1" source="sgZPGOeCJPQWiLNWUdwU-1" target="sgZPGOeCJPQWiLNWUdwU-47" edge="1">
          <mxGeometry relative="1" as="geometry">
            <mxPoint x="1100.27" y="730.91" as="targetPoint" />
          </mxGeometry>
        </mxCell>
        <mxCell id="sgZPGOeCJPQWiLNWUdwU-55" value="&lt;a href=&quot;data:page/id,UFzkiy5nreiDV0YAMeuw&quot;&gt;装备系统&lt;/a&gt;" style="rounded=1;whiteSpace=wrap;html=1;fillColor=#dae8fc;strokeColor=#6c8ebf;arcSize=50;sketch=1;curveFitting=1;jiggle=2;gradientColor=#7ea6e0;" parent="1" vertex="1">
          <mxGeometry x="865" y="704" width="120" height="34" as="geometry" />
        </mxCell>
        <mxCell id="sgZPGOeCJPQWiLNWUdwU-118" style="edgeStyle=orthogonalEdgeStyle;rounded=0;orthogonalLoop=1;jettySize=auto;html=1;sketch=1;curveFitting=1;jiggle=2;" parent="1" source="sgZPGOeCJPQWiLNWUdwU-66" target="sgZPGOeCJPQWiLNWUdwU-1" edge="1">
          <mxGeometry relative="1" as="geometry">
            <Array as="points">
              <mxPoint x="283" y="627" />
              <mxPoint x="283" y="359" />
              <mxPoint x="1140" y="359" />
            </Array>
          </mxGeometry>
        </mxCell>
        <mxCell id="sgZPGOeCJPQWiLNWUdwU-119" value="制作生产线中的机器装置需要通过探索遗迹?" style="edgeLabel;html=1;align=center;verticalAlign=middle;resizable=0;points=[];sketch=1;curveFitting=1;jiggle=2;" parent="sgZPGOeCJPQWiLNWUdwU-118" vertex="1" connectable="0">
          <mxGeometry x="-0.0209" y="2" relative="1" as="geometry">
            <mxPoint as="offset" />
          </mxGeometry>
        </mxCell>
        <mxCell id="sgZPGOeCJPQWiLNWUdwU-127" style="edgeStyle=orthogonalEdgeStyle;rounded=0;orthogonalLoop=1;jettySize=auto;html=1;sketch=1;curveFitting=1;jiggle=2;" parent="1" source="sgZPGOeCJPQWiLNWUdwU-77" target="sgZPGOeCJPQWiLNWUdwU-3" edge="1">
          <mxGeometry relative="1" as="geometry" />
        </mxCell>
        <mxCell id="sgZPGOeCJPQWiLNWUdwU-128" value="事件需要玩家通过战斗解决问题" style="edgeLabel;html=1;align=center;verticalAlign=middle;resizable=0;points=[];sketch=1;curveFitting=1;jiggle=2;" parent="sgZPGOeCJPQWiLNWUdwU-127" vertex="1" connectable="0">
          <mxGeometry x="-0.7728" y="3" relative="1" as="geometry">
            <mxPoint as="offset" />
          </mxGeometry>
        </mxCell>
        <mxCell id="sgZPGOeCJPQWiLNWUdwU-111" style="edgeStyle=orthogonalEdgeStyle;rounded=0;orthogonalLoop=1;jettySize=auto;html=1;entryX=1;entryY=0.5;entryDx=0;entryDy=0;sketch=1;curveFitting=1;jiggle=2;" parent="1" source="sgZPGOeCJPQWiLNWUdwU-91" target="sgZPGOeCJPQWiLNWUdwU-113" edge="1">
          <mxGeometry relative="1" as="geometry">
            <mxPoint x="775" y="554" as="targetPoint" />
          </mxGeometry>
        </mxCell>
        <mxCell id="sgZPGOeCJPQWiLNWUdwU-112" value="装备需要生产" style="edgeLabel;html=1;align=center;verticalAlign=middle;resizable=0;points=[];sketch=1;curveFitting=1;jiggle=2;" parent="sgZPGOeCJPQWiLNWUdwU-111" vertex="1" connectable="0">
          <mxGeometry x="0.2326" y="2" relative="1" as="geometry">
            <mxPoint as="offset" />
          </mxGeometry>
        </mxCell>
        <mxCell id="sgZPGOeCJPQWiLNWUdwU-122" style="edgeStyle=orthogonalEdgeStyle;rounded=0;orthogonalLoop=1;jettySize=auto;html=1;sketch=1;curveFitting=1;jiggle=2;" parent="1" source="sgZPGOeCJPQWiLNWUdwU-91" target="sgZPGOeCJPQWiLNWUdwU-55" edge="1">
          <mxGeometry relative="1" as="geometry" />
        </mxCell>
<<<<<<< Updated upstream
        <mxCell id="ZaAOxvUgpK_A0dbjLnsE-3" style="edgeStyle=none;curved=1;rounded=0;orthogonalLoop=1;jettySize=auto;html=1;fontSize=12;startSize=8;endSize=8;" edge="1" parent="1" source="sgZPGOeCJPQWiLNWUdwU-91" target="ZaAOxvUgpK_A0dbjLnsE-2">
          <mxGeometry relative="1" as="geometry" />
        </mxCell>
        <mxCell id="sgZPGOeCJPQWiLNWUdwU-91" value="玩家需要制作高级的装备" style="rounded=1;whiteSpace=wrap;html=1;" parent="1" vertex="1">
=======
        <mxCell id="sgZPGOeCJPQWiLNWUdwU-91" value="玩家需要制作高级的装备" style="rounded=1;whiteSpace=wrap;html=1;sketch=1;curveFitting=1;jiggle=2;" parent="1" vertex="1">
>>>>>>> Stashed changes
          <mxGeometry x="865" y="597" width="120" height="60" as="geometry" />
        </mxCell>
        <mxCell id="sgZPGOeCJPQWiLNWUdwU-102" style="edgeStyle=orthogonalEdgeStyle;rounded=0;orthogonalLoop=1;jettySize=auto;html=1;sketch=1;curveFitting=1;jiggle=2;" parent="1" source="sgZPGOeCJPQWiLNWUdwU-1" target="sgZPGOeCJPQWiLNWUdwU-3" edge="1">
          <mxGeometry relative="1" as="geometry" />
        </mxCell>
        <mxCell id="sgZPGOeCJPQWiLNWUdwU-108" value="探索时会产生战斗" style="edgeLabel;html=1;align=center;verticalAlign=middle;resizable=0;points=[];sketch=1;curveFitting=1;jiggle=2;" parent="sgZPGOeCJPQWiLNWUdwU-102" vertex="1" connectable="0">
          <mxGeometry x="0.128" relative="1" as="geometry">
            <mxPoint as="offset" />
          </mxGeometry>
        </mxCell>
        <mxCell id="sgZPGOeCJPQWiLNWUdwU-130" style="edgeStyle=orthogonalEdgeStyle;rounded=0;orthogonalLoop=1;jettySize=auto;html=1;sketch=1;curveFitting=1;jiggle=2;" parent="1" source="sgZPGOeCJPQWiLNWUdwU-1" target="sgZPGOeCJPQWiLNWUdwU-84" edge="1">
          <mxGeometry relative="1" as="geometry">
            <Array as="points">
              <mxPoint x="1185" y="232" />
            </Array>
          </mxGeometry>
        </mxCell>
        <mxCell id="sgZPGOeCJPQWiLNWUdwU-131" value="探索也会触发事件" style="edgeLabel;html=1;align=center;verticalAlign=middle;resizable=0;points=[];sketch=1;curveFitting=1;jiggle=2;" parent="sgZPGOeCJPQWiLNWUdwU-130" vertex="1" connectable="0">
          <mxGeometry x="-0.7042" y="1" relative="1" as="geometry">
            <mxPoint as="offset" />
          </mxGeometry>
        </mxCell>
        <mxCell id="sgZPGOeCJPQWiLNWUdwU-1" value="探索" style="rounded=0;whiteSpace=wrap;html=1;sketch=1;curveFitting=1;jiggle=2;" parent="1" vertex="1">
          <mxGeometry x="1080.27" y="595.91" width="120" height="60" as="geometry" />
        </mxCell>
        <mxCell id="sgZPGOeCJPQWiLNWUdwU-107" value="" style="group;sketch=1;curveFitting=1;jiggle=2;" parent="1" vertex="1" connectable="0">
          <mxGeometry x="1382" y="595.91" width="120" height="137" as="geometry" />
        </mxCell>
        <mxCell id="sgZPGOeCJPQWiLNWUdwU-48" value="&lt;a href=&quot;data:page/id,4e21hq4EQfnfGdJ8mzFA&quot;&gt;战斗系统&lt;/a&gt;" style="rounded=1;whiteSpace=wrap;html=1;fillColor=#dae8fc;strokeColor=#6c8ebf;arcSize=50;sketch=1;curveFitting=1;jiggle=2;gradientColor=#7ea6e0;" parent="sgZPGOeCJPQWiLNWUdwU-107" vertex="1">
          <mxGeometry x="20" y="97" width="80" height="40" as="geometry" />
        </mxCell>
        <mxCell id="sgZPGOeCJPQWiLNWUdwU-100" style="edgeStyle=orthogonalEdgeStyle;rounded=0;orthogonalLoop=1;jettySize=auto;html=1;sketch=1;curveFitting=1;jiggle=2;" parent="sgZPGOeCJPQWiLNWUdwU-107" source="sgZPGOeCJPQWiLNWUdwU-3" target="sgZPGOeCJPQWiLNWUdwU-48" edge="1">
          <mxGeometry relative="1" as="geometry" />
        </mxCell>
        <mxCell id="sgZPGOeCJPQWiLNWUdwU-3" value="战斗" style="rounded=0;whiteSpace=wrap;html=1;sketch=1;curveFitting=1;jiggle=2;" parent="sgZPGOeCJPQWiLNWUdwU-107" vertex="1">
          <mxGeometry width="120" height="60" as="geometry" />
        </mxCell>
        <mxCell id="sgZPGOeCJPQWiLNWUdwU-109" style="edgeStyle=orthogonalEdgeStyle;rounded=0;orthogonalLoop=1;jettySize=auto;html=1;sketch=1;curveFitting=1;jiggle=2;" parent="1" source="sgZPGOeCJPQWiLNWUdwU-3" target="sgZPGOeCJPQWiLNWUdwU-91" edge="1">
          <mxGeometry relative="1" as="geometry">
            <Array as="points">
              <mxPoint x="1409" y="453" />
              <mxPoint x="920" y="453" />
            </Array>
          </mxGeometry>
        </mxCell>
        <mxCell id="sgZPGOeCJPQWiLNWUdwU-110" value="战斗需要装备" style="edgeLabel;html=1;align=center;verticalAlign=middle;resizable=0;points=[];sketch=1;curveFitting=1;jiggle=2;" parent="sgZPGOeCJPQWiLNWUdwU-109" vertex="1" connectable="0">
          <mxGeometry x="0.0104" relative="1" as="geometry">
            <mxPoint x="115" y="-1" as="offset" />
          </mxGeometry>
        </mxCell>
        <mxCell id="sgZPGOeCJPQWiLNWUdwU-115" style="edgeStyle=orthogonalEdgeStyle;rounded=0;orthogonalLoop=1;jettySize=auto;html=1;entryX=0.5;entryY=0;entryDx=0;entryDy=0;sketch=1;curveFitting=1;jiggle=2;" parent="1" source="sgZPGOeCJPQWiLNWUdwU-113" target="sgZPGOeCJPQWiLNWUdwU-114" edge="1">
          <mxGeometry relative="1" as="geometry" />
        </mxCell>
        <mxCell id="sgZPGOeCJPQWiLNWUdwU-116" style="edgeStyle=orthogonalEdgeStyle;rounded=0;orthogonalLoop=1;jettySize=auto;html=1;entryX=1;entryY=0.5;entryDx=0;entryDy=0;sketch=1;curveFitting=1;jiggle=2;" parent="1" source="sgZPGOeCJPQWiLNWUdwU-113" target="sgZPGOeCJPQWiLNWUdwU-66" edge="1">
          <mxGeometry relative="1" as="geometry" />
        </mxCell>
        <mxCell id="sgZPGOeCJPQWiLNWUdwU-117" value="合成高级装备需要大量输入材料" style="edgeLabel;html=1;align=center;verticalAlign=middle;resizable=0;points=[];sketch=1;curveFitting=1;jiggle=2;" parent="sgZPGOeCJPQWiLNWUdwU-116" vertex="1" connectable="0">
          <mxGeometry x="0.1571" y="1" relative="1" as="geometry">
            <mxPoint as="offset" />
          </mxGeometry>
        </mxCell>
        <mxCell id="sgZPGOeCJPQWiLNWUdwU-144" style="edgeStyle=orthogonalEdgeStyle;rounded=0;orthogonalLoop=1;jettySize=auto;html=1;sketch=1;curveFitting=1;jiggle=2;" parent="1" source="sgZPGOeCJPQWiLNWUdwU-113" target="sgZPGOeCJPQWiLNWUdwU-1" edge="1">
          <mxGeometry relative="1" as="geometry">
            <Array as="points">
              <mxPoint x="661" y="486" />
              <mxPoint x="1090" y="486" />
            </Array>
          </mxGeometry>
        </mxCell>
        <mxCell id="sgZPGOeCJPQWiLNWUdwU-145" value="合成需要的特殊材料需要探索" style="edgeLabel;html=1;align=center;verticalAlign=middle;resizable=0;points=[];sketch=1;curveFitting=1;jiggle=2;" parent="sgZPGOeCJPQWiLNWUdwU-144" vertex="1" connectable="0">
          <mxGeometry x="-0.2364" y="2" relative="1" as="geometry">
            <mxPoint as="offset" />
          </mxGeometry>
        </mxCell>
        <mxCell id="sgZPGOeCJPQWiLNWUdwU-113" value="合成制作装备和材料" style="rounded=1;whiteSpace=wrap;html=1;sketch=1;curveFitting=1;jiggle=2;" parent="1" vertex="1">
          <mxGeometry x="601" y="594" width="120" height="60" as="geometry" />
        </mxCell>
        <mxCell id="sgZPGOeCJPQWiLNWUdwU-114" value="&lt;a href=&quot;data:page/id,WCs-G18D6YQ83Z-JA0hO&quot;&gt;合成系统&lt;/a&gt;" style="rounded=1;whiteSpace=wrap;html=1;fillColor=#dae8fc;strokeColor=#6c8ebf;arcSize=50;sketch=1;curveFitting=1;jiggle=2;gradientColor=#7ea6e0;" parent="1" vertex="1">
          <mxGeometry x="601" y="710" width="120" height="38" as="geometry" />
        </mxCell>
        <mxCell id="sgZPGOeCJPQWiLNWUdwU-129" value="" style="group;sketch=1;curveFitting=1;jiggle=2;" parent="1" vertex="1" connectable="0">
          <mxGeometry x="1382" y="195" width="120" height="148" as="geometry" />
        </mxCell>
        <mxCell id="sgZPGOeCJPQWiLNWUdwU-77" value="游戏随着游戏时长的增加会产生事件" style="rounded=1;whiteSpace=wrap;html=1;sketch=1;curveFitting=1;jiggle=2;" parent="sgZPGOeCJPQWiLNWUdwU-129" vertex="1">
          <mxGeometry y="88" width="120" height="60" as="geometry" />
        </mxCell>
        <mxCell id="sgZPGOeCJPQWiLNWUdwU-126" style="edgeStyle=orthogonalEdgeStyle;rounded=0;orthogonalLoop=1;jettySize=auto;html=1;sketch=1;curveFitting=1;jiggle=2;" parent="sgZPGOeCJPQWiLNWUdwU-129" source="sgZPGOeCJPQWiLNWUdwU-84" target="sgZPGOeCJPQWiLNWUdwU-77" edge="1">
          <mxGeometry relative="1" as="geometry" />
        </mxCell>
        <mxCell id="sgZPGOeCJPQWiLNWUdwU-84" value="游戏事件系统" style="shape=process;whiteSpace=wrap;html=1;backgroundOutline=1;fillColor=#f8cecc;strokeColor=#b85450;sketch=1;curveFitting=1;jiggle=2;" parent="sgZPGOeCJPQWiLNWUdwU-129" vertex="1">
          <mxGeometry width="120" height="60" as="geometry" />
        </mxCell>
        <mxCell id="sgZPGOeCJPQWiLNWUdwU-133" style="edgeStyle=orthogonalEdgeStyle;rounded=0;orthogonalLoop=1;jettySize=auto;html=1;entryX=0.25;entryY=0;entryDx=0;entryDy=0;sketch=1;curveFitting=1;jiggle=2;" parent="1" source="sgZPGOeCJPQWiLNWUdwU-84" target="sgZPGOeCJPQWiLNWUdwU-1" edge="1">
          <mxGeometry relative="1" as="geometry">
            <Array as="points">
              <mxPoint x="1110" y="213" />
            </Array>
            <mxPoint x="1307" y="158" as="sourcePoint" />
          </mxGeometry>
        </mxCell>
        <mxCell id="sgZPGOeCJPQWiLNWUdwU-134" value="事件需要玩家探索" style="edgeLabel;html=1;align=center;verticalAlign=middle;resizable=0;points=[];sketch=1;curveFitting=1;jiggle=2;" parent="sgZPGOeCJPQWiLNWUdwU-133" vertex="1" connectable="0">
          <mxGeometry x="-0.0563" y="3" relative="1" as="geometry">
            <mxPoint as="offset" />
          </mxGeometry>
        </mxCell>
        <mxCell id="sgZPGOeCJPQWiLNWUdwU-96" style="edgeStyle=orthogonalEdgeStyle;rounded=0;orthogonalLoop=1;jettySize=auto;html=1;sketch=1;curveFitting=1;jiggle=2;" parent="1" source="sgZPGOeCJPQWiLNWUdwU-66" target="sgZPGOeCJPQWiLNWUdwU-95" edge="1">
          <mxGeometry relative="1" as="geometry" />
        </mxCell>
        <mxCell id="sgZPGOeCJPQWiLNWUdwU-66" value="生产线" style="rounded=1;whiteSpace=wrap;html=1;sketch=1;curveFitting=1;jiggle=2;" parent="1" vertex="1">
          <mxGeometry x="288" y="597" width="120" height="60" as="geometry" />
        </mxCell>
        <mxCell id="sgZPGOeCJPQWiLNWUdwU-95" value="&lt;a href=&quot;data:page/id,DBMBjDPxNjhQfU15J7hw&quot;&gt;建造系统&lt;/a&gt;" style="rounded=1;whiteSpace=wrap;html=1;fillColor=#f8cecc;strokeColor=#b85450;arcSize=50;sketch=1;curveFitting=1;jiggle=2;" parent="1" vertex="1">
          <mxGeometry x="298" y="717" width="100" height="40" as="geometry" />
        </mxCell>
<<<<<<< Updated upstream
        <mxCell id="7XPcrnXRqbOTe6IbbNeM-3" style="edgeStyle=orthogonalEdgeStyle;rounded=0;orthogonalLoop=1;jettySize=auto;html=1;" parent="1" target="sgZPGOeCJPQWiLNWUdwU-84" edge="1">
          <mxGeometry relative="1" as="geometry">
            <mxPoint x="1245" y="18" as="sourcePoint" />
            <mxPoint x="1349" y="202" as="targetPoint" />
            <Array as="points">
              <mxPoint x="1392" y="18" />
            </Array>
          </mxGeometry>
        </mxCell>
        <mxCell id="7XPcrnXRqbOTe6IbbNeM-1" value="天气系统" style="rounded=1;whiteSpace=wrap;html=1;fillColor=#f8cecc;strokeColor=#b85450;" parent="1" vertex="1">
          <mxGeometry x="1215" y="-12" width="120" height="60" as="geometry" />
        </mxCell>
        <mxCell id="7XPcrnXRqbOTe6IbbNeM-12" style="edgeStyle=orthogonalEdgeStyle;rounded=0;orthogonalLoop=1;jettySize=auto;html=1;" parent="1" source="7XPcrnXRqbOTe6IbbNeM-11" target="sgZPGOeCJPQWiLNWUdwU-84" edge="1">
          <mxGeometry relative="1" as="geometry">
            <Array as="points">
              <mxPoint x="1472" y="-60" />
            </Array>
          </mxGeometry>
        </mxCell>
        <mxCell id="7XPcrnXRqbOTe6IbbNeM-11" value="四级系统" style="rounded=1;whiteSpace=wrap;html=1;fillColor=#f8cecc;strokeColor=#b85450;" parent="1" vertex="1">
          <mxGeometry x="1215" y="-94" width="120" height="60" as="geometry" />
=======
        <mxCell id="vNFORDV7HUQQ3ghFkE6E-7" style="edgeStyle=elbowEdgeStyle;rounded=0;orthogonalLoop=1;jettySize=auto;html=1;sketch=1;curveFitting=1;jiggle=2;" edge="1" parent="1" source="7XPcrnXRqbOTe6IbbNeM-1" target="sgZPGOeCJPQWiLNWUdwU-84">
          <mxGeometry relative="1" as="geometry" />
        </mxCell>
        <mxCell id="7XPcrnXRqbOTe6IbbNeM-1" value="天气系统" style="rounded=1;whiteSpace=wrap;html=1;fillColor=#dae8fc;strokeColor=#6c8ebf;sketch=1;curveFitting=1;jiggle=2;" parent="1" vertex="1">
          <mxGeometry x="1379" y="95" width="120" height="60" as="geometry" />
        </mxCell>
        <mxCell id="vNFORDV7HUQQ3ghFkE6E-8" style="edgeStyle=orthogonalEdgeStyle;rounded=0;orthogonalLoop=1;jettySize=auto;html=1;sketch=1;curveFitting=1;jiggle=2;" edge="1" parent="1" source="vNFORDV7HUQQ3ghFkE6E-1" target="sgZPGOeCJPQWiLNWUdwU-47">
          <mxGeometry relative="1" as="geometry" />
        </mxCell>
        <mxCell id="vNFORDV7HUQQ3ghFkE6E-1" value="&lt;a href=&quot;data:page/id,wyX1DH_YWRQsNjHUMlE2&quot;&gt;游戏时间管理系统&lt;/a&gt;" style="rounded=1;whiteSpace=wrap;html=1;fillColor=#f8cecc;strokeColor=#b85450;sketch=1;curveFitting=1;jiggle=2;" vertex="1" parent="1">
          <mxGeometry x="1069.63" y="888" width="141.27" height="70.63" as="geometry" />
>>>>>>> Stashed changes
        </mxCell>
        <mxCell id="ZaAOxvUgpK_A0dbjLnsE-2" value="&lt;a href=&quot;data:page/id,b-nYo9M50C3D8bHxrTHw&quot;&gt;Item系统&lt;/a&gt;" style="rounded=1;whiteSpace=wrap;html=1;fillColor=#f8cecc;strokeColor=#b85450;" vertex="1" parent="1">
          <mxGeometry x="1022" y="792" width="120" height="60" as="geometry" />
        </mxCell>
      </root>
    </mxGraphModel>
  </diagram>
  <diagram id="DBMBjDPxNjhQfU15J7hw" name="建造系统">
    <mxGraphModel dx="1554" dy="922" grid="0" gridSize="10" guides="1" tooltips="1" connect="1" arrows="1" fold="1" page="1" pageScale="1" pageWidth="827" pageHeight="1169" math="0" shadow="0">
      <root>
        <mxCell id="0" />
        <mxCell id="1" parent="0" />
      </root>
    </mxGraphModel>
  </diagram>
  <diagram id="7nI9HsyKMPYUS1flPPYI" name="场景管理系统">
<<<<<<< Updated upstream
    <mxGraphModel dx="1036" dy="665" grid="0" gridSize="10" guides="1" tooltips="1" connect="1" arrows="1" fold="1" page="1" pageScale="1" pageWidth="827" pageHeight="1169" math="0" shadow="0">
=======
    <mxGraphModel dx="1899" dy="636" grid="1" gridSize="10" guides="1" tooltips="1" connect="1" arrows="1" fold="1" page="1" pageScale="1" pageWidth="827" pageHeight="1169" math="0" shadow="0">
>>>>>>> Stashed changes
      <root>
        <mxCell id="0" />
        <mxCell id="1" parent="0" />
        <mxCell id="ddwmhv76aeBrU5trwrPD-1" value="场景管理" style="rounded=0;whiteSpace=wrap;html=1;sketch=1;hachureGap=4;jiggle=2;curveFitting=1;fontFamily=Architects Daughter;fontSource=https%3A%2F%2Ffonts.googleapis.com%2Fcss%3Ffamily%3DArchitects%2BDaughter;" vertex="1" parent="1">
          <mxGeometry x="390" y="380" width="120" height="60" as="geometry" />
        </mxCell>
        <mxCell id="ddwmhv76aeBrU5trwrPD-2" value="Item(物品的最小单元)" style="rounded=0;whiteSpace=wrap;html=1;sketch=1;hachureGap=4;jiggle=2;curveFitting=1;fontFamily=Architects Daughter;fontSource=https%3A%2F%2Ffonts.googleapis.com%2Fcss%3Ffamily%3DArchitects%2BDaughter;" vertex="1" parent="1">
          <mxGeometry x="-140" y="420" width="120" height="60" as="geometry" />
        </mxCell>
        <mxCell id="ddwmhv76aeBrU5trwrPD-8" style="edgeStyle=none;rounded=0;sketch=1;hachureGap=4;jiggle=2;curveFitting=1;orthogonalLoop=1;jettySize=auto;html=1;fontFamily=Architects Daughter;fontSource=https%3A%2F%2Ffonts.googleapis.com%2Fcss%3Ffamily%3DArchitects%2BDaughter;" edge="1" parent="1" source="ddwmhv76aeBrU5trwrPD-3" target="ddwmhv76aeBrU5trwrPD-2">
          <mxGeometry relative="1" as="geometry" />
        </mxCell>
        <mxCell id="ddwmhv76aeBrU5trwrPD-3" value="地形方块" style="rounded=0;whiteSpace=wrap;html=1;sketch=1;hachureGap=4;jiggle=2;curveFitting=1;fontFamily=Architects Daughter;fontSource=https%3A%2F%2Ffonts.googleapis.com%2Fcss%3Ffamily%3DArchitects%2BDaughter;" vertex="1" parent="1">
          <mxGeometry x="-270" y="500" width="120" height="60" as="geometry" />
        </mxCell>
        <mxCell id="ddwmhv76aeBrU5trwrPD-9" style="edgeStyle=none;rounded=0;sketch=1;hachureGap=4;jiggle=2;curveFitting=1;orthogonalLoop=1;jettySize=auto;html=1;fontFamily=Architects Daughter;fontSource=https%3A%2F%2Ffonts.googleapis.com%2Fcss%3Ffamily%3DArchitects%2BDaughter;" edge="1" parent="1" source="ddwmhv76aeBrU5trwrPD-5" target="ddwmhv76aeBrU5trwrPD-2">
          <mxGeometry relative="1" as="geometry" />
        </mxCell>
        <mxCell id="ddwmhv76aeBrU5trwrPD-5" value="建筑" style="rounded=0;whiteSpace=wrap;html=1;sketch=1;hachureGap=4;jiggle=2;curveFitting=1;fontFamily=Architects Daughter;fontSource=https%3A%2F%2Ffonts.googleapis.com%2Fcss%3Ffamily%3DArchitects%2BDaughter;" vertex="1" parent="1">
          <mxGeometry x="-140" y="500" width="120" height="60" as="geometry" />
        </mxCell>
        <mxCell id="ddwmhv76aeBrU5trwrPD-10" style="edgeStyle=none;rounded=0;sketch=1;hachureGap=4;jiggle=2;curveFitting=1;orthogonalLoop=1;jettySize=auto;html=1;fontFamily=Architects Daughter;fontSource=https%3A%2F%2Ffonts.googleapis.com%2Fcss%3Ffamily%3DArchitects%2BDaughter;" edge="1" parent="1" source="ddwmhv76aeBrU5trwrPD-6" target="ddwmhv76aeBrU5trwrPD-2">
          <mxGeometry relative="1" as="geometry" />
        </mxCell>
        <mxCell id="ddwmhv76aeBrU5trwrPD-6" value="普通物体" style="rounded=0;whiteSpace=wrap;html=1;sketch=1;hachureGap=4;jiggle=2;curveFitting=1;fontFamily=Architects Daughter;fontSource=https%3A%2F%2Ffonts.googleapis.com%2Fcss%3Ffamily%3DArchitects%2BDaughter;" vertex="1" parent="1">
          <mxGeometry x="-10" y="500" width="120" height="60" as="geometry" />
        </mxCell>
        <mxCell id="ddwmhv76aeBrU5trwrPD-14" style="edgeStyle=none;rounded=0;sketch=1;hachureGap=4;jiggle=2;curveFitting=1;orthogonalLoop=1;jettySize=auto;html=1;fontFamily=Architects Daughter;fontSource=https%3A%2F%2Ffonts.googleapis.com%2Fcss%3Ffamily%3DArchitects%2BDaughter;" edge="1" parent="1" source="ddwmhv76aeBrU5trwrPD-11" target="ddwmhv76aeBrU5trwrPD-1">
          <mxGeometry relative="1" as="geometry" />
        </mxCell>
        <mxCell id="ddwmhv76aeBrU5trwrPD-11" value="场景生成" style="rounded=0;whiteSpace=wrap;html=1;sketch=1;hachureGap=4;jiggle=2;curveFitting=1;fontFamily=Architects Daughter;fontSource=https%3A%2F%2Ffonts.googleapis.com%2Fcss%3Ffamily%3DArchitects%2BDaughter;" vertex="1" parent="1">
          <mxGeometry x="270" y="510" width="120" height="60" as="geometry" />
        </mxCell>
        <mxCell id="ddwmhv76aeBrU5trwrPD-15" style="edgeStyle=none;rounded=0;sketch=1;hachureGap=4;jiggle=2;curveFitting=1;orthogonalLoop=1;jettySize=auto;html=1;fontFamily=Architects Daughter;fontSource=https%3A%2F%2Ffonts.googleapis.com%2Fcss%3Ffamily%3DArchitects%2BDaughter;" edge="1" parent="1" source="ddwmhv76aeBrU5trwrPD-12" target="ddwmhv76aeBrU5trwrPD-1">
          <mxGeometry relative="1" as="geometry" />
        </mxCell>
        <mxCell id="ddwmhv76aeBrU5trwrPD-12" value="场景切换" style="rounded=0;whiteSpace=wrap;html=1;sketch=1;hachureGap=4;jiggle=2;curveFitting=1;fontFamily=Architects Daughter;fontSource=https%3A%2F%2Ffonts.googleapis.com%2Fcss%3Ffamily%3DArchitects%2BDaughter;" vertex="1" parent="1">
          <mxGeometry x="510" y="510" width="120" height="60" as="geometry" />
        </mxCell>
        <mxCell id="ddwmhv76aeBrU5trwrPD-18" style="edgeStyle=none;rounded=0;sketch=1;hachureGap=4;jiggle=2;curveFitting=1;orthogonalLoop=1;jettySize=auto;html=1;fontFamily=Architects Daughter;fontSource=https%3A%2F%2Ffonts.googleapis.com%2Fcss%3Ffamily%3DArchitects%2BDaughter;" edge="1" parent="1" source="ddwmhv76aeBrU5trwrPD-16" target="ddwmhv76aeBrU5trwrPD-12">
          <mxGeometry relative="1" as="geometry" />
        </mxCell>
        <mxCell id="ddwmhv76aeBrU5trwrPD-16" value="加载" style="rounded=0;whiteSpace=wrap;html=1;sketch=1;hachureGap=4;jiggle=2;curveFitting=1;fontFamily=Architects Daughter;fontSource=https%3A%2F%2Ffonts.googleapis.com%2Fcss%3Ffamily%3DArchitects%2BDaughter;" vertex="1" parent="1">
          <mxGeometry x="450" y="650" width="120" height="60" as="geometry" />
        </mxCell>
        <mxCell id="ddwmhv76aeBrU5trwrPD-19" style="edgeStyle=none;rounded=0;sketch=1;hachureGap=4;jiggle=2;curveFitting=1;orthogonalLoop=1;jettySize=auto;html=1;fontFamily=Architects Daughter;fontSource=https%3A%2F%2Ffonts.googleapis.com%2Fcss%3Ffamily%3DArchitects%2BDaughter;" edge="1" parent="1" source="ddwmhv76aeBrU5trwrPD-17" target="ddwmhv76aeBrU5trwrPD-12">
          <mxGeometry relative="1" as="geometry" />
        </mxCell>
        <mxCell id="ddwmhv76aeBrU5trwrPD-17" value="卸载" style="rounded=0;whiteSpace=wrap;html=1;sketch=1;hachureGap=4;jiggle=2;curveFitting=1;fontFamily=Architects Daughter;fontSource=https%3A%2F%2Ffonts.googleapis.com%2Fcss%3Ffamily%3DArchitects%2BDaughter;" vertex="1" parent="1">
          <mxGeometry x="590" y="650" width="120" height="60" as="geometry" />
        </mxCell>
      </root>
    </mxGraphModel>
  </diagram>
  <diagram id="WCs-G18D6YQ83Z-JA0hO" name="合成系统">
    <mxGraphModel dx="1554" dy="922" grid="1" gridSize="10" guides="1" tooltips="1" connect="1" arrows="1" fold="1" page="1" pageScale="1" pageWidth="827" pageHeight="1169" math="0" shadow="0">
      <root>
        <mxCell id="0" />
        <mxCell id="1" parent="0" />
      </root>
    </mxGraphModel>
  </diagram>
  <diagram id="UFzkiy5nreiDV0YAMeuw" name="装备系统">
    <mxGraphModel dx="1554" dy="922" grid="1" gridSize="10" guides="1" tooltips="1" connect="1" arrows="1" fold="1" page="1" pageScale="1" pageWidth="827" pageHeight="1169" math="0" shadow="0">
      <root>
        <mxCell id="0" />
        <mxCell id="1" parent="0" />
      </root>
    </mxGraphModel>
  </diagram>
  <diagram id="4e21hq4EQfnfGdJ8mzFA" name="战斗系统">
    <mxGraphModel dx="1554" dy="922" grid="1" gridSize="10" guides="1" tooltips="1" connect="1" arrows="1" fold="1" page="1" pageScale="1" pageWidth="827" pageHeight="1169" math="0" shadow="0">
      <root>
        <mxCell id="0" />
        <mxCell id="1" parent="0" />
      </root>
    </mxGraphModel>
  </diagram>
<<<<<<< Updated upstream
  <diagram id="b-nYo9M50C3D8bHxrTHw" name="Item系统">
    <mxGraphModel dx="714" dy="459" grid="0" gridSize="10" guides="1" tooltips="1" connect="1" arrows="1" fold="1" page="0" pageScale="1" pageWidth="1000" pageHeight="1000" math="0" shadow="0">
      <root>
        <mxCell id="0" />
        <mxCell id="1" parent="0" />
        <mxCell id="U4ns7oZEHfAtnHDhh-E5-1" value="Item" style="rounded=1;whiteSpace=wrap;html=1;" vertex="1" parent="1">
          <mxGeometry x="22" y="81" width="120" height="60" as="geometry" />
        </mxCell>
        <mxCell id="U4ns7oZEHfAtnHDhh-E5-3" value="动画模块" style="rounded=1;whiteSpace=wrap;html=1;" vertex="1" parent="1">
          <mxGeometry x="169" y="183" width="120" height="60" as="geometry" />
        </mxCell>
        <mxCell id="U4ns7oZEHfAtnHDhh-E5-5" value="" style="rounded=0;whiteSpace=wrap;html=1;" vertex="1" parent="1">
          <mxGeometry x="49" y="141" width="26" height="311" as="geometry" />
        </mxCell>
        <mxCell id="U4ns7oZEHfAtnHDhh-E5-6" style="edgeStyle=none;curved=1;rounded=0;orthogonalLoop=1;jettySize=auto;html=1;entryX=0.882;entryY=0.236;entryDx=0;entryDy=0;entryPerimeter=0;fontSize=12;startSize=8;endSize=8;" edge="1" parent="1" source="U4ns7oZEHfAtnHDhh-E5-3" target="U4ns7oZEHfAtnHDhh-E5-5">
          <mxGeometry relative="1" as="geometry" />
        </mxCell>
=======
  <diagram id="ZRuCu_v2BcsWYI286SqI" name="事件系统">
    <mxGraphModel dx="1554" dy="922" grid="1" gridSize="10" guides="1" tooltips="1" connect="1" arrows="1" fold="1" page="1" pageScale="1" pageWidth="827" pageHeight="1169" math="0" shadow="0">
      <root>
        <mxCell id="0" />
        <mxCell id="1" parent="0" />
      </root>
    </mxGraphModel>
  </diagram>
  <diagram id="wyX1DH_YWRQsNjHUMlE2" name="游戏时间管理系统">
    <mxGraphModel dx="1554" dy="922" grid="1" gridSize="10" guides="1" tooltips="1" connect="1" arrows="1" fold="1" page="1" pageScale="1" pageWidth="827" pageHeight="1169" math="0" shadow="0">
      <root>
        <mxCell id="0" />
        <mxCell id="1" parent="0" />
>>>>>>> Stashed changes
      </root>
    </mxGraphModel>
  </diagram>
</mxfile>
